<svg width="20" height="17" viewBox="0 0 20 17" fill="none" xmlns="http://www.w3.org/2000/svg">
<path d="M14.5749 5.41545C15.1883 4.78381 15.7972 3.31 13.2415 5.09963C10.854 6.79163 8.45037 8.45929 6.03089 10.1024C5.66246 10.2739 5.26416 10.367 4.85991 10.3761C4.45565 10.3851 4.0538 10.3099 3.67848 10.155C2.14502 9.68127 0.354872 9.04964 0.354872 9.04964C0.354872 9.04964 -0.86745 8.25895 1.22494 7.41677C1.22494 7.41677 10.0712 3.67845 13.1393 2.3614C14.3149 1.83504 18.303 0.150679 18.303 0.150679C18.303 0.150679 20.1443 -0.587372 19.9909 1.2034C19.9398 1.94031 19.5309 4.52178 19.122 7.3115C18.5075 11.2604 17.843 15.5788 17.843 15.5788C17.843 15.5788 17.7407 16.7895 16.8718 17C15.9416 16.9838 15.0428 16.6506 14.316 16.0525C14.1116 15.8946 10.4813 13.5249 9.15115 12.3669C9.01585 12.2725 8.90592 12.1444 8.83161 11.9945C8.75729 11.8446 8.72099 11.6778 8.7261 11.5096C8.7312 11.3414 8.77753 11.1773 8.86078 11.0325C8.94404 10.8876 9.06151 10.7669 9.20226 10.6814C11.0266 8.96258 12.8178 7.20694 14.5749 5.41545Z" fill="white"/>
</svg>
